<svg width="120" height="130" viewBox="0 0 120 130" fill="none" xmlns="http://www.w3.org/2000/svg">
    <rect fill="url(#c30e24ad-d21b-4a4f-bcca-7cc9c26f1fc3)" x="0" y="0" width="120" height="130" rx="16"/>

    <g id="37f31856-175c-45ea-b879-574c697078f7" stroke="none" fill="#ffffff"
        transform="translate(10, 15)">
        <path
            d="M30.9 13.2c2.6-.5 4.5-2.7 4.5-5.4 0-3.1-2.5-5.6-5.6-5.6-3.1 0-5.6 2.5-5.6 5.6 0 2.7 1.9 5 4.5 5.4v12l10.1 8.5v32.9l-10.1 8.5v12c-2.6.5-4.5 2.7-4.5 5.4 0 3.1 2.5 5.6 5.6 5.6 3.1 0 5.6-2.5 5.6-5.6 0-2.7-1.9-5-4.5-5.4v-11L41 67.4V32.6l-10.1-8.5V13.2zm2.4 79.1c0 1.9-1.5 3.5-3.5 3.5-1.9 0-3.5-1.5-3.5-3.5s1.5-3.5 3.5-3.5 3.5 1.6 3.5 3.5zM26.4 7.7c0-1.9 1.5-3.5 3.5-3.5 1.9 0 3.5 1.5 3.5 3.5s-1.5 3.5-3.5 3.5c-1.9 0-3.5-1.6-3.5-3.5zM71.2 86.8v-12l-10.1-8.5V33.6l10.1-8.5v-12c2.6-.5 4.5-2.7 4.5-5.4 0-3.1-2.5-5.6-5.6-5.6s-5.6 2.5-5.6 5.6c0 2.7 1.9 5 4.5 5.4v11l-10 8.5v34.8l10.1 8.5v11c-2.6.5-4.5 2.7-4.5 5.4 0 3.1 2.5 5.6 5.6 5.6s5.6-2.5 5.6-5.6c-.1-2.7-2.1-5-4.6-5.5zM66.7 7.7c0-1.9 1.5-3.5 3.5-3.5s3.5 1.5 3.5 3.5-1.5 3.5-3.5 3.5-3.5-1.6-3.5-3.5zm3.4 88c-1.9 0-3.5-1.5-3.5-3.5s1.5-3.5 3.5-3.5 3.5 1.5 3.5 3.5-1.6 3.5-3.5 3.5z"></path>
        <path
            d="M80.2 61.4c-1.2 0-2.4.4-3.3 1.1L71.2 58V42.1l5.7-4.5c.9.7 2.1 1.1 3.3 1.1 3.1 0 5.6-2.5 5.6-5.6 0-3.1-2.5-5.6-5.6-5.6s-5.6 2.5-5.6 5.6c0 1.1.3 2 .8 2.9l-6.3 5v18l6.4 5.1c-.5.8-.8 1.8-.8 2.9 0 3.1 2.5 5.6 5.6 5.6s5.6-2.5 5.6-5.6c-.1-3.1-2.6-5.6-5.7-5.6zm-3.4-28.3c0-1.9 1.5-3.5 3.5-3.5s3.5 1.5 3.5 3.5c0 1.9-1.5 3.5-3.5 3.5-.7 0-1.3-.2-1.8-.5l-1.1-1.4-.1.1c-.4-.6-.5-1.1-.5-1.7zm3.4 37.3c-1.9 0-3.5-1.5-3.5-3.5 0-.6.1-1.1.4-1.6l.1.1 1.1-1.4c.5-.3 1.2-.5 1.8-.5 1.9 0 3.5 1.5 3.5 3.5.1 1.8-1.5 3.4-3.4 3.4zM24.4 63.9l6.5-4.9V41l-6.5-4.9c.6-.9.9-1.9.9-3 0-3.1-2.5-5.6-5.6-5.6s-5.6 2.5-5.6 5.6c0 3.1 2.5 5.6 5.6 5.6 1.2 0 2.3-.4 3.2-1l5.9 4.4V58L23 62.4c-.9-.6-2-1-3.2-1-3.1 0-5.6 2.5-5.6 5.6 0 3.1 2.5 5.6 5.6 5.6s5.6-2.5 5.6-5.6c-.1-1.2-.4-2.2-1-3.1zm-4.6-27.4c-1.9 0-3.5-1.5-3.5-3.5 0-1.9 1.5-3.5 3.5-3.5s3.5 1.5 3.5 3.5c-.1 2-1.6 3.5-3.5 3.5zm0 33.9c-1.9 0-3.5-1.5-3.5-3.5 0-1.9 1.5-3.5 3.5-3.5s3.5 1.5 3.5 3.5c-.1 1.9-1.6 3.5-3.5 3.5zM55.6 24.6c0-3.1-2.5-5.6-5.6-5.6s-5.6 2.5-5.6 5.6c0 2.7 1.9 5 4.5 5.4v39.9c-2.6.5-4.5 2.7-4.5 5.4 0 3.1 2.5 5.6 5.6 5.6s5.6-2.5 5.6-5.6c0-2.7-1.9-5-4.5-5.4V30.1c2.5-.5 4.5-2.8 4.5-5.5zm-9.1 0c0-1.9 1.5-3.5 3.5-3.5 1.9 0 3.5 1.5 3.5 3.5 0 1.9-1.5 3.5-3.5 3.5-1.9 0-3.5-1.6-3.5-3.5zm7 50.8c0 1.9-1.5 3.5-3.5 3.5-1.9 0-3.5-1.5-3.5-3.5s1.5-3.5 3.5-3.5c1.9 0 3.5 1.6 3.5 3.5z"></path>
    </g>

    <defs>
        <linearGradient gradientTransform="rotate(25)"
            id="c30e24ad-d21b-4a4f-bcca-7cc9c26f1fc3" x1="0%" y1="0%" x2="100%" y2="0%">
            <stop offset="0%" stop-color="#30223A" stop-opacity="1"></stop>
            <stop offset="100%" stop-color="#F13800" stop-opacity="1"></stop>
        </linearGradient>
        <filter id="filter0_d_1147_9" x="0.875" y="109.938" width="132.922" height="31.375"
            filterUnits="userSpaceOnUse" color-interpolation-filters="sRGB">
            <feFlood flood-opacity="0" result="BackgroundImageFix" />
            <feColorMatrix in="SourceAlpha" type="matrix"
                values="0 0 0 0 0 0 0 0 0 0 0 0 0 0 0 0 0 0 127 0" result="hardAlpha" />
            <feOffset dy="4" />
            <feGaussianBlur stdDeviation="2" />
            <feComposite in2="hardAlpha" operator="out" />
            <feColorMatrix type="matrix" values="0 0 0 0 0 0 0 0 0 0 0 0 0 0 0 0 0 0 0.25 0" />
            <feBlend mode="normal" in2="BackgroundImageFix" result="effect1_dropShadow_1147_9" />
            <feBlend mode="normal" in="SourceGraphic" in2="effect1_dropShadow_1147_9" result="shape" />
        </filter>
        <filter id="filter1_d_1147_9" x="10" y="0" width="115" height="115"
            filterUnits="userSpaceOnUse" color-interpolation-filters="sRGB">
            <feFlood flood-opacity="0" result="BackgroundImageFix" />
            <feColorMatrix in="SourceAlpha" type="matrix"
                values="0 0 0 0 0 0 0 0 0 0 0 0 0 0 0 0 0 0 127 0" result="hardAlpha" />
            <feOffset dy="6" />
            <feGaussianBlur stdDeviation="10" />
            <feColorMatrix type="matrix"
                values="0 0 0 0 0.65 0 0 0 0 0.65 0 0 0 0 0.65 0 0 0 0.23 0" />
            <feBlend mode="normal" in2="BackgroundImageFix" result="effect1_dropShadow_1147_9" />
            <feBlend mode="normal" in="SourceGraphic" in2="effect1_dropShadow_1147_9" result="shape" />
        </filter>
        <linearGradient id="paint0_linear_1147_9" x1="37.6792" y1="-7.6666" x2="108.193"
            y2="-5.27828" gradientUnits="userSpaceOnUse">
            <stop stop-color="#FF7F27" />
            <stop offset="1" stop-color="#FFA86C" />
        </linearGradient>
    </defs>
</svg>