<svg width="38" height="23" viewBox="0 0 38 23" fill="none" xmlns="http://www.w3.org/2000/svg">
<g clip-path="url(#clip0_8_11)">
<mask id="mask0_8_11" style="mask-type:luminance" maskUnits="userSpaceOnUse" x="-1" y="0" width="39" height="23">
<path d="M11.4992 0H26.3379C32.6892 0 37.8379 5.14873 37.8379 11.5C37.8379 17.8513 32.6892 23 26.3379 23H11.4992C5.14793 23 -0.000801086 17.8513 -0.000801086 11.5C-0.000801086 5.14873 5.14793 0 11.4992 0Z" fill="white"/>
</mask>
<g mask="url(#mask0_8_11)">
<path d="M11.4992 0H26.3379C32.6892 0 37.8379 5.14873 37.8379 11.5C37.8379 17.8513 32.6892 23 26.3379 23H11.4992C5.14793 23 -0.000801086 17.8513 -0.000801086 11.5C-0.000801086 5.14873 5.14793 0 11.4992 0Z" fill="#D9D9D9"/>
<path d="M11.3373 1.61328H11.3374C16.8691 1.61328 21.3535 6.09764 21.3535 11.6294V11.6295C21.3535 17.1612 16.8691 21.6456 11.3374 21.6456H11.3373C5.80556 21.6456 1.3212 17.1612 1.3212 11.6295V11.6294C1.3212 6.09764 5.80556 1.61328 11.3373 1.61328Z" fill="white"/>
</g>
</g>
<defs>
<clipPath id="clip0_8_11">
<rect width="38" height="23" fill="white"/>
</clipPath>
</defs>
</svg>
