<svg width="38" height="23" viewBox="0 0 38 23" fill="none" xmlns="http://www.w3.org/2000/svg">
<g clip-path="url(#clip0_8_2)">
<mask id="mask0_8_2" style="mask-type:luminance" maskUnits="userSpaceOnUse" x="0" y="0" width="38" height="23">
<path d="M26.3387 0H11.5C5.14873 0 0 5.14873 0 11.5C0 17.8513 5.14873 23 11.5 23H26.3387C32.69 23 37.8387 17.8513 37.8387 11.5C37.8387 5.14873 32.69 0 26.3387 0Z" fill="white"/>
</mask>
<g mask="url(#mask0_8_2)">
<path d="M26.3387 0H11.5C5.14873 0 0 5.14873 0 11.5C0 17.8513 5.14873 23 11.5 23H26.3387C32.69 23 37.8387 17.8513 37.8387 11.5C37.8387 5.14873 32.69 0 26.3387 0Z" fill="#F13800"/>
<path d="M26.5006 1.61328H26.5005C20.9688 1.61328 16.4844 6.09764 16.4844 11.6294V11.6295C16.4844 17.1612 20.9688 21.6456 26.5005 21.6456H26.5006C32.0323 21.6456 36.5167 17.1612 36.5167 11.6295V11.6294C36.5167 6.09764 32.0323 1.61328 26.5006 1.61328Z" fill="white"/>
</g>
</g>
<defs>
<clipPath id="clip0_8_2">
<rect width="38" height="23" fill="white"/>
</clipPath>
</defs>
</svg>
