<svg width="26" height="26" viewBox="0 0 26 26" fill="none" xmlns="http://www.w3.org/2000/svg">
<circle cx="12.7857" cy="12.7857" r="12.7857" fill="white"/>
<circle cx="12.7857" cy="12.7857" r="12.2857" stroke="#686868" stroke-opacity="0.3"/>
<path fill-rule="evenodd" clip-rule="evenodd" d="M6.91302 6.91381C7.03131 6.79567 7.19165 6.72931 7.35883 6.72931C7.52602 6.72931 7.68636 6.79567 7.80465 6.91381L17.8986 17.0078C17.9606 17.0656 18.0103 17.1352 18.0448 17.2126C18.0793 17.29 18.0978 17.3735 18.0993 17.4582C18.1008 17.5429 18.0852 17.6271 18.0535 17.7056C18.0218 17.7842 17.9746 17.8555 17.9147 17.9154C17.8547 17.9754 17.7834 18.0226 17.7048 18.0543C17.6263 18.086 17.5421 18.1016 17.4574 18.1001C17.3727 18.0986 17.2892 18.0801 17.2118 18.0456C17.1344 18.0111 17.0648 17.9614 17.007 17.8994L6.91302 7.80545C6.79487 7.68716 6.72852 7.52681 6.72852 7.35963C6.72852 7.19245 6.79487 7.0321 6.91302 6.91381Z" fill="#FF2A04"/>
<path fill-rule="evenodd" clip-rule="evenodd" d="M18.6598 6.92639C18.786 7.05275 18.8569 7.22403 18.8569 7.40262C18.8569 7.5812 18.786 7.75248 18.6598 7.87884L7.87745 18.6612C7.7497 18.7803 7.58074 18.8451 7.40615 18.842C7.23157 18.8389 7.06499 18.7682 6.94152 18.6447C6.81805 18.5212 6.74733 18.3547 6.74425 18.1801C6.74117 18.0055 6.80597 17.8365 6.92501 17.7088L17.7074 6.92639C17.8337 6.80019 18.005 6.72931 18.1836 6.72931C18.3622 6.72931 18.5335 6.80019 18.6598 6.92639Z" fill="#FF2A04"/>
</svg>
